<svg width="256" height="256" viewBox="0 0 256 256" fill="none" xmlns="http://www.w3.org/2000/svg">
  <rect width="256" height="256" rx="64" fill="#0A0A0A"/>
  <rect x="28" y="28" width="200" height="200" rx="48" fill="url(#paint0_linear)" stroke="rgba(154,208,170,0.22)"/>
  <path d="M78 162C78 126.654 106.654 98 142 98H171V120H142C118.804 120 100 138.804 100 162V165C100 188.196 118.804 207 142 207H178V229H142C106.654 229 78 200.346 78 165V162Z" fill="#F5F2EC"/>
  <path d="M151 71H178V176C178 192.569 164.569 206 148 206H141V184H148C152.418 184 156 180.418 156 176V71H151Z" fill="#76C28D"/>
  <defs>
    <linearGradient id="paint0_linear" x1="58" y1="44" x2="198" y2="218" gradientUnits="userSpaceOnUse">
      <stop stop-color="#171A12"/>
      <stop offset="1" stop-color="#10110B"/>
    </linearGradient>
  </defs>
</svg>
