<svg width="256" height="256" viewBox="0 0 256 256" fill="none" xmlns="http://www.w3.org/2000/svg">
  <rect width="256" height="256" rx="64" fill="#0A0A0A"/>
  <rect x="24" y="24" width="208" height="208" rx="52" fill="url(#bg)"/>
  <path d="M76 88C76 76.9543 84.9543 68 96 68H172V92H100V112H154C167.255 112 178 122.745 178 136V146C178 162.569 164.569 176 148 176H84V152H144C149.523 152 154 147.523 154 142V140C154 134.477 149.523 130 144 130H96C84.9543 130 76 121.046 76 110V88Z" fill="#F5F2EC"/>
  <path d="M98 190V92H184V116H124V132H174V156H124V190H98Z" fill="#76C28D"/>
  <defs>
    <linearGradient id="bg" x1="48" y1="34" x2="206" y2="224" gradientUnits="userSpaceOnUse">
      <stop stop-color="#171A12"/>
      <stop offset="1" stop-color="#10110B"/>
    </linearGradient>
  </defs>
</svg>
